<svg xmlns="http://www.w3.org/2000/svg" version="1.1" xml:space="preserve" width="166" height="91">
    <rect id="backgroundrect" width="100%" height="100%" x="0" y="0" fill="none" />
    <g class="currentLayer">
        <title>Products</title>
        <path d="M165.73821618652343,76.05500122070313 l-16.54,-10.685 l14.567,4.9719999999999995 a1.494,1.494 0 0 0 1.357,-0.19900000000000004 a1.5,1.5 0 0 0 0.6270000000000001,-1.22 V33.67100122070312 c0,-0.6420000000000001 -0.40800000000000003,-1.212 -1.016,-1.419 l-17.485,-5.968 a1.499,1.499 0 0 0 -0.7080000000000001,-0.06300000000000001 a1.512,1.512 0 0 0 -0.7200000000000001,0.07100000000000001 l-16.162,5.806 l-7.619,-2.6 V16.173001220703128 c0,-0.38500000000000006 -0.14800000000000002,-0.7550000000000001 -0.41400000000000003,-1.035 l-13.325,-13.991 a1.498,1.498 0 0 0 -1.454,-1.147 h-59.39 c-0.07200000000000001,0 -0.14,0.011000000000000003 -0.20900000000000002,0.021000000000000005 c-0.020000000000000004,0.003000000000000001 -0.04100000000000001,0.0020000000000000005 -0.06100000000000001,0.006000000000000002 a1.469,1.469 0 0 0 -0.453,0.16700000000000004 c-0.12300000000000001,0.06800000000000002 -0.24000000000000002,0.14800000000000002 -0.3390000000000001,0.24700000000000003 l-1.9500000000000002,1.9500000000000002 c-0.019000000000000003,0.019000000000000003 -0.026000000000000006,0.04300000000000001 -0.04300000000000001,0.06300000000000001 a1.494,1.494 0 0 0 -0.541,1.143 v23.357 l-35.019,-3.153 a1.526,1.526 0 0 0 -0.985,0.259 l-7.206,4.959 a1.5,1.5 0 0 0 0.7150000000000001,2.73 l10.943,0.985 l5.591,7.568 l-11.599,8.842 c-0.018000000000000002,0.014000000000000002 -0.031000000000000007,0.03200000000000001 -0.04900000000000001,0.04700000000000001 c-0.017000000000000005,0.014000000000000002 -0.036000000000000004,0.024000000000000004 -0.05300000000000001,0.03900000000000001 c-0.028000000000000004,0.026000000000000006 -0.04900000000000001,0.05700000000000001 -0.07500000000000001,0.08400000000000002 c-0.035,0.037000000000000005 -0.07,0.07300000000000001 -0.1,0.11300000000000002 a1.4100000000000001,1.4100000000000001 0 0 0 -0.1,0.15500000000000003 c-0.024000000000000004,0.04000000000000001 -0.04900000000000001,0.07900000000000001 -0.06900000000000002,0.12100000000000001 c-0.029000000000000005,0.06300000000000001 -0.05000000000000001,0.128 -0.07,0.19500000000000003 c-0.012000000000000002,0.038000000000000006 -0.028000000000000004,0.07400000000000001 -0.036000000000000004,0.11200000000000002 c-0.023000000000000007,0.10400000000000001 -0.036000000000000004,0.21000000000000002 -0.037000000000000005,0.31800000000000006 l-0.0010000000000000002,0.009000000000000003 v31.739 c0,0.17300000000000001 0.038000000000000006,0.3370000000000001 0.09400000000000003,0.49400000000000005 c0.017000000000000005,0.04800000000000001 0.03900000000000001,0.09000000000000002 0.06000000000000001,0.135 c0.05100000000000001,0.10900000000000001 0.11400000000000002,0.20900000000000002 0.18900000000000003,0.30300000000000005 c0.031000000000000007,0.038000000000000006 0.05800000000000001,0.07700000000000001 0.09300000000000003,0.11200000000000002 c0.10600000000000001,0.10800000000000001 0.22500000000000003,0.202 0.36200000000000004,0.275 c0.012000000000000002,0.006000000000000002 0.020000000000000004,0.016000000000000004 0.03200000000000001,0.022000000000000006 l0.005000000000000001,0.003000000000000001 c0.15100000000000002,0.07500000000000001 0.31200000000000006,0.11300000000000002 0.47400000000000003,0.134 c0.019000000000000003,0.003000000000000001 0.035,0.014000000000000002 0.05400000000000001,0.016000000000000004 l50.78,4.668 c0.04600000000000001,0.004000000000000001 0.09200000000000003,0.006000000000000002 0.138,0.006000000000000002 c0.014000000000000002,0 0.027000000000000007,-0.007000000000000002 0.04100000000000001,-0.008000000000000002 c0.15900000000000003,-0.004000000000000001 0.31500000000000006,-0.03300000000000001 0.465,-0.08700000000000002 c0.06000000000000001,-0.022000000000000006 0.11100000000000002,-0.06000000000000001 0.16900000000000004,-0.08900000000000002 c0.07900000000000001,-0.04000000000000001 0.16200000000000003,-0.06900000000000002 0.23500000000000001,-0.12400000000000001 l5.302,-4.042 l1.211,4.828 a1.502,1.502 0 0 0 2.364,0.8280000000000001 l2.222,-1.6940000000000002 l1.134,2.697 a1.502,1.502 0 0 0 2.292,0.6120000000000001 l8.384,-6.389 l11.134,3.402 a1.5,1.5 0 0 0 1.9380000000000002,-1.435 V71.47500122070312 h11.04 l13.53,14.207 a1.499,1.499 0 0 0 2.5860000000000003,-1.035 v-10.278 l12.655,8.175 c0.24200000000000002,0.15700000000000003 0.524,0.24000000000000002 0.8130000000000001,0.24000000000000002 h28.509 a1.5,1.5 0 0 0 0.8130000000000001,-2.7600000000000002 l-1.871,-1.208 h1.964 c0.6650000000000001,0 1.251,-0.43800000000000006 1.4380000000000002,-1.076 a1.492,1.492 0 0 0 -0.6210000000000001,-1.685 zM5.777216186523436,29.134001220703126 l3.3360000000000003,-2.2960000000000003 l2.267,0.20400000000000001 l3.729,0.44800000000000006 l40.022,3.603 l-3.192,2.197 l-46.162,-4.156 zm10.529,3.96 l35.903,3.232 a1.5,1.5 0 0 0 0.986,-0.259 l5.992,-4.124 l8.472,11.467 l-46.847,-4.216 l-4.506,-6.1 zm53.042,20.823 l-9.843,7.505 c-0.005000000000000001,0.003000000000000001 -0.007000000000000002,0.008000000000000002 -0.012000000000000002,0.012000000000000002 v-5.687 l9.854,-7.513 v5.683 zm-50.78,-10.35 v6.309 l-7.385,-0.6790000000000002 l7.385,-5.63 zm37.925,41.533 l-47.78,-4.393 v-28.726 l47.78,4.393 v28.726 zm1.053,-31.641000000000002 l-35.978,-3.307 V42.27500122070313 l45.3,4.078 l-9.322,7.106 zm1.947,30.255 v-18.604 l3.917,15.618 l-3.917,2.9859999999999998 zm8.278,2.07 l-2.007,-8.003 l3.036,7.218 l-1.029,0.785 zm5.3790000000000004,1.82 l-9.286,-22.08 l7.964,-6.072 l9.289,22.081 l-7.9670000000000005,6.071 zm18.734,-2.888 l-7.493,-2.289 a1.497,1.497 0 0 0 -0.05800000000000001,-0.986 L73.84221618652344,56.503001220703126 a1.502,1.502 0 0 0 -0.996,-0.8680000000000001 c-0.07300000000000001,-0.020000000000000004 -0.14800000000000002,-0.025000000000000005 -0.22200000000000003,-0.03300000000000001 l-0.276,-1.101 v-9.297 c0,-0.016000000000000004 -0.006000000000000002,-0.031000000000000007 -0.007000000000000002,-0.04700000000000001 c-0.0020000000000000005,-0.06800000000000002 -0.017000000000000005,-0.133 -0.028000000000000004,-0.2 c-0.012000000000000002,-0.07300000000000001 -0.022000000000000006,-0.14600000000000002 -0.04500000000000001,-0.21500000000000002 c-0.019000000000000003,-0.05800000000000001 -0.04800000000000001,-0.11200000000000002 -0.07500000000000001,-0.16800000000000004 a1.443,1.443 0 0 0 -0.11400000000000002,-0.21200000000000002 c-0.011000000000000003,-0.016000000000000004 -0.015000000000000003,-0.03400000000000001 -0.026000000000000006,-0.04900000000000001 L60.852216186523435,29.151001220703122 a1.49,1.49 0 0 0 -1.1680000000000001,-0.773 L46.86221618652344,27.22400122070313 V5.623001220703124 l45.021,13.756 v65.337 zm13.182,-16.242 h-10.183 V18.26900122070313 a1.5,1.5 0 0 0 -1.062,-1.435 L51.447216186523434,3.8870012207031266 l-0.17900000000000002,-0.8870000000000001 h53.798 v65.474 zm13.974,12.422 l-10.692,-11.227 V5.5460012207031255 l10.692,11.228 v64.122 zm29.225,-51.096 l14.485,4.944 v32.082 l-14.485,-4.944 V29.800001220703123 zm-1.7120000000000002,34.668 l1.506,0.514 h-2.938 l1.432,-0.514 zm-15.336,-29.742 l13.611,-4.890000000000001 v32.064 l-8.579,3.082 h-5.033 V34.726001220703125 zm-9.177,30.023 V32.66700122070313 l6.085,2.077 v30.238 h-5.4030000000000005 l-0.6820000000000002,-0.233 zm13.911,15.034 l-12.126,-7.833 h1.522 l10.255,6.625 c0.24200000000000002,0.15700000000000003 0.524,0.24000000000000002 0.8130000000000001,0.24000000000000002 h21.017 l1.499,0.9680000000000001 h-22.98 zm0.907,-3.968 l-12.126,-7.833 h22.98 l12.126,7.833 h-22.98 z" />
    </g>
</svg>