<svg xmlns="http://www.w3.org/2000/svg" xmlns:xlink="http://www.w3.org/1999/xlink" version="1.1" style="enable-background:new 0 0 200 150;" xml:space="preserve" width="191" height="105"><rect id="backgroundrect" width="100%" height="100%" x="0" y="0" fill="none" stroke="none"/>
<g class="currentLayer" style=""><title>Products</title><path class="st0" d="M190.4488648414612,87.50000038146973 l-19,-12.3 l16.8,5.7 c0.9,0.30000000000000004 1.9,-0.2 2.2,-1.1 c0.1,-0.2 0.1,-0.4 0.1,-0.6000000000000001 V38.70000038146973 c0,-0.7000000000000001 -0.5,-1.4 -1.2,-1.6 l-20.1,-6.9 c-0.5,-0.1 -1.1,-0.1 -1.6,0 l-18.6,6.7 l-8.8,-3 V18.600000381469727 c0,-0.4 -0.2,-0.9 -0.5,-1.2 l-15.3,-16.1 c-0.2,-0.8 -0.9,-1.3 -1.7000000000000002,-1.3 H54.44886484146118 c-0.1,0 -0.2,0 -0.2,0 c0,0 0,0 -0.1,0 c-0.2,0 -0.30000000000000004,0.1 -0.4,0.1 c0,0 -0.1,0 -0.1,0 c-0.1,0.1 -0.30000000000000004,0.2 -0.4,0.30000000000000004 l-2.2,2.2 c0,0 0,0 0,0.1 c-0.4,0.30000000000000004 -0.6000000000000001,0.8 -0.6000000000000001,1.3 v26.9 l-40.3,-3.6 c-0.4,0 -0.8,0.1 -1.1,0.30000000000000004 l-8.3,5.7 c-0.8,0.5 -1,1.6 -0.4,2.4 c0.30000000000000004,0.4 0.8,0.7000000000000001 1.3,0.7000000000000001 L14.048864841461182,37.60000038146973 l6.4,8.7 L7.148864841461181,56.50000038146973 c0,0 0,0 -0.1,0.1 s0,0 -0.1,0 s-0.1,0.1 -0.1,0.1 s-0.1,0.1 -0.1,0.1 c0,0.1 -0.1,0.1 -0.1,0.2 c0,0 -0.1,0.1 -0.1,0.1 c0,0.1 -0.1,0.1 -0.1,0.2 c0,0 0,0.1 0,0.1 c0,0.1 0,0.2 0,0.4 v36.5 c0,0.2 0,0.4 0.1,0.6000000000000001 c0,0.1 0,0.1 0.1,0.2 c0.1,0.1 0.1,0.2 0.2,0.30000000000000004 c0,0 0.1,0.1 0.1,0.1 c0.1,0.1 0.30000000000000004,0.2 0.4,0.30000000000000004 c0,0 0,0 0,0 h0 c0.2,0.1 0.4,0.1 0.5,0.2 c0,0 0,0 0.1,0 l58.4,5.4 c0.1,0 0.1,0 0.2,0 c0,0 0,0 0,0 c0.30000000000000004,0 0.5,-0.1 0.7000000000000001,-0.2 c0.1,0 0.2,-0.1 0.30000000000000004,-0.1 l6.1,-4.6 l1.4,5.6 c0.2,0.9 1.2,1.5 2.1,1.3 c0.2,-0.1 0.4,-0.2 0.6000000000000001,-0.30000000000000004 l2.6,-1.9 l1.3,3.1 c0.2,0.5 0.6000000000000001,0.9 1.1,1 c0.1,0 0.30000000000000004,0.1 0.4,0.1 c0.4,0 0.7000000000000001,-0.1 1,-0.4 l9.6,-7.3 l12.8,3.9 c0.2,0 0.30000000000000004,0.1 0.5,0.1 c1,0 1.7000000000000002,-0.8 1.7000000000000002,-1.7000000000000002 c0,0 0,0 0,0 v-17.6 h12.7 l15.6,16.3 c0.7000000000000001,0.7000000000000001 1.8,0.7000000000000001 2.4,0.1 c0.30000000000000004,-0.30000000000000004 0.5,-0.8 0.5,-1.2 v-11.8 l14.6,9.4 c0.30000000000000004,0.2 0.6000000000000001,0.30000000000000004 0.9,0.30000000000000004 h32.8 c1,0 1.7000000000000002,-0.8 1.7000000000000002,-1.7000000000000002 c0,-0.6000000000000001 -0.30000000000000004,-1.1 -0.8,-1.4 l-2.2,-1.4 h2.3 c1,0 1.7000000000000002,-0.8 1.7000000000000002,-1.7000000000000002 C191.24886484146117,88.30000038146973 190.9488648414612,87.80000038146973 190.4488648414612,87.50000038146973 L190.4488648414612,87.50000038146973 zM6.448864841461182,33.500000381469725 l3.8,-2.6 l2.6,0.2 l4.3,0.5 l46,4.1 L59.54886484146118,38.30000038146973 L6.448864841461182,33.500000381469725 zM18.648864841461183,38.10000038146973 l41.3,3.7 c0.1,0 0.1,0 0.2,0 c0.30000000000000004,0 0.7000000000000001,-0.1 1,-0.30000000000000004 l6.9,-4.7 l9.7,13.2 l-53.9,-4.8 L18.648864841461183,38.10000038146973 zM79.64886484146118,62.00000038146973 L68.24886484146118,70.60000038146973 l0,0 v-6.5 l11.3,-8.6 L79.64886484146118,62.00000038146973 zM21.24886484146118,50.10000038146973 v7.3 L12.748864841461181,56.60000038146973 L21.24886484146118,50.10000038146973 zM64.84886484146118,97.90000038146972 l-54.9,-5.1 v-33 l54.9,5.1 V97.90000038146972 zM66.04886484146118,61.50000038146973 l-41.4,-3.8 V48.60000038146973 l52.1,4.7 L66.04886484146118,61.50000038146973 zM68.24886484146118,96.30000038146973 V74.90000038146972 l4.5,18 L68.24886484146118,96.30000038146973 zM77.74886484146118,98.70000038146972 l-2.3,-9.2 l3.5,8.3 L77.74886484146118,98.70000038146972 zM83.94886484146119,100.70000038146972 L73.24886484146118,75.40000038146972 l9.2,-7 l10.7,25.4 L83.94886484146119,100.70000038146972 zM105.54886484146118,97.40000038146972 l-8.6,-2.6 c0.1,-0.4 0.1,-0.8 -0.1,-1.1 L84.74886484146118,65.00000038146973 c-0.2,-0.5 -0.6000000000000001,-0.9 -1.1,-1 c-0.1,0 -0.2,0 -0.30000000000000004,0 l-0.30000000000000004,-1.3 V52.00000038146973 c0,0 0,0 0,-0.1 c0,-0.1 0,-0.2 0,-0.2 c0,-0.1 0,-0.2 -0.1,-0.2 c0,-0.1 -0.1,-0.1 -0.1,-0.2 c0,-0.1 -0.1,-0.2 -0.1,-0.2 c0,0 0,0 0,-0.1 L69.84886484146118,33.500000381469725 c-0.30000000000000004,-0.5 -0.8,-0.8 -1.3,-0.9 l-14.7,-1.3 V6.500000381469725 L105.54886484146118,22.30000038146973 L105.54886484146118,97.40000038146972 zM120.64886484146118,78.70000038146972 h-11.7 V21.000000381469725 c0,-0.8 -0.5,-1.4 -1.2,-1.6 L59.04886484146118,4.500000381469725 l-0.2,-1 h61.9 L120.64886484146118,78.70000038146972 zM136.74886484146117,93.00000038146973 l-12.3,-12.9 V6.400000381469727 l12.3,12.9 V93.00000038146973 zM170.3488648414612,34.30000038146973 l16.7,5.7 v36.9 l-16.7,-5.7 L170.3488648414612,34.30000038146973 zM168.3488648414612,74.10000038146973 l1.7000000000000002,0.6000000000000001 h-3.4 L168.3488648414612,74.10000038146973 zM150.74886484146117,39.900000381469724 l15.7,-5.6 v36.9 l-9.9,3.5 h-5.8 V39.900000381469724 zM140.14886484146118,74.50000038146973 V37.60000038146973 l7,2.4 v34.8 h-6.2 L140.14886484146118,74.50000038146973 zM156.14886484146118,91.80000038146973 l-13.9,-9 h1.8 l11.8,7.6 c0.30000000000000004,0.2 0.6000000000000001,0.30000000000000004 0.9,0.30000000000000004 h24.2 l1.7000000000000002,1.1 L156.14886484146118,91.80000038146973 zM157.24886484146117,87.20000038146972 l-13.9,-9 h26.4 l13.9,9 L157.24886484146117,87.20000038146972 z" id="svg_1"/></g></svg>