<svg xmlns="http://www.w3.org/2000/svg" xmlns:xlink="http://www.w3.org/1999/xlink" version="1.1" style="enable-background:new 0 0 200 150;" xml:space="preserve" width="125" height="119"><rect id="backgroundrect" width="100%" height="100%" x="0" y="0" fill="none" stroke="none" class="" style=""/>
<g class="currentLayer" style=""><title>Print</title><g id="e8baccfe-d84f-41fc-af04-0122838fb42c" class="">
	<g id="a204ffa4-58d4-4cc5-92f1-d71dfd9eac9a">
		<g id="b305aad7-23e3-48b5-a345-4481dc39b2d7">
			<g id="bae89c7f-3c63-4953-bc24-19474f9d69d1">
				<path class="st0" d="M15.614015197753908,62.76568260192872 c-2.9,-0.1 -5.7,-1.4 -7.8,-3.5 c-3.2,-3.2 -5.5,-7.2 -6.7,-11.6 c-1.3,-4.3 -1.5,-9 -0.4,-13.4 c1.1,-4.3 3.5,-7.1 6.8,-8 c0.1,0 0.2,-0.1 0.30000000000000004,-0.1 c0,0 0.1,0 0.1,0 l91.1,-26.1 c0.4,-0.1 0.9,-0.1 1.2,0.1 c0.2,0.1 19.5,10 10,34.2 c-0.2,0.5 -0.6000000000000001,0.9 -1.1,1 L21.21401519775391,60.565682601928714 c-1,0.9 -2.1,1.5 -3.3,1.9 C17.114015197753908,62.66568260192871 16.414015197753905,62.76568260192872 15.614015197753908,62.76568260192872 zM9.714015197753909,29.36568260192871 c-0.4,0 -0.9,0.1 -1.3,0.2 c-2,0.6000000000000001 -3.6,2.6 -4.4,5.6 c-0.9,3.8 -0.7000000000000001,7.8 0.4,11.5 c1,3.8 3,7.2 5.7,10 c2.3,2.1 4.7,3 6.7,2.4 l0,0 c0.7000000000000001,-0.2 1.4,-0.6000000000000001 1.9,-1.1 c0.1,-0.2 0.30000000000000004,-0.30000000000000004 0.4,-0.4 c1,-1.2 1.7000000000000002,-2.6 2.1,-4.1 c0.9,-3.8 0.7000000000000001,-7.8 -0.4,-11.5 C18.814015197753903,34.76568260192871 13.914015197753905,29.36568260192871 9.714015197753909,29.36568260192871 L9.714015197753909,29.36568260192871 zM15.214015197753909,27.665682601928708 c3.9,2.4 7.3,7.2 9,13.4 c1.3,4.3 1.5,9 0.5,13.4 c-0.2,0.6000000000000001 -0.30000000000000004,1.2 -0.6000000000000001,1.7000000000000002 l83.3,-23.9 c6.9,-18.6 -5.2,-27.1 -8.1,-28.8 L15.214015197753909,27.665682601928708 z" id="svg_1"/>
			</g>
		</g>
		<g id="a47d999b-66ba-4849-9e2f-9dc61046cb99">
			<g id="bc20553b-0d2e-44a0-9315-248fdde8ec79">
				<path class="st0" d="M13.914015197753905,52.76568260192872 c-2.8,0 -5.6,-2.7 -6.8,-6.8 c-1.3,-4.6 0.1,-8.9 3.2,-9.8 s6.6,2 8,6.6 s-0.1,8.9 -3.2,9.8 l0,0 C14.714015197753909,52.66568260192871 14.314015197753903,52.76568260192872 13.914015197753905,52.76568260192872 zM14.614015197753908,50.965682601928705 L14.614015197753908,50.965682601928705 zM11.514015197753906,39.36568260192871 c-0.1,0 -0.2,0 -0.2,0 c-0.9,0.30000000000000004 -1.7000000000000002,2.6 -0.9,5.6 s2.8,4.5 3.7,4.3 s1.7000000000000002,-2.6 0.9,-5.6 C14.214015197753909,40.96568260192871 12.514015197753906,39.36568260192871 11.514015197753906,39.36568260192871 z" id="svg_2"/>
			</g>
		</g>
		<g id="e63c7396-c6cb-4676-ae70-13d66502489f">
			<g id="efcaf8b1-7d9e-455f-b322-cfc610fd25d4">
				<path class="st0" d="M29.314015197753903,103.9656826019287 c-1,0 -1.7000000000000002,-0.8 -1.7000000000000002,-1.7000000000000002 c0,-0.8 0.5,-1.5 1.3,-1.7000000000000002 h0 c2,-0.6000000000000001 3.6,-2.6 4.4,-5.6 c0.9,-3.8 0.7000000000000001,-7.8 -0.4,-11.5 c-2.3,-8 -8,-13.7 -12.5,-12.4 h0 c-0.9,0.30000000000000004 -1.9,-0.30000000000000004 -2.1,-1.2 c-0.2,-0.9 0.30000000000000004,-1.8 1.2,-2.1 l22.5,-6.4 c0.6000000000000001,-0.2 1.3,0 1.7000000000000002,0.4 c8.6,8.7 14.4,19.8 16.7,31.8 c0.2,0.9 -0.4,1.7000000000000002 -1.2,2 l-29.3,8.4 h0 C29.6140151977539,103.9656826019287 29.414015197753912,103.9656826019287 29.314015197753903,103.9656826019287 zM27.014015197753906,69.06568260192871 c3.9,2.4 7.3,7.2 9,13.4 c1.3,4.3 1.5,9 0.5,13.4 c-0.30000000000000004,1 -0.6000000000000001,1.9 -1,2.8 l21,-6 c-2.3,-10.4 -7.4,-20.1 -14.8,-27.8 L27.014015197753906,69.06568260192871 zM117.2140151977539,78.76568260192872 c-0.8,0 -1.5,-0.6000000000000001 -1.7000000000000002,-1.3 c-2.6,-11.3 -8.3,-21.7 -16.4,-30 c-0.7000000000000001,-0.7000000000000001 -0.7000000000000001,-1.8 0,-2.4 c0.2,-0.2 0.5,-0.30000000000000004 0.7000000000000001,-0.4 l11.2,-3.2 c0.4,-0.1 0.9,-0.1 1.3,0.1 c0.2,0.1 18.9,10.6 10.2,35 c-0.2,0.5 -0.6000000000000001,0.9 -1.1,1.1 l-3.8,1.1 C117.6140151977539,78.66568260192871 117.41401519775391,78.76568260192872 117.2140151977539,78.76568260192872 zM103.6140151977539,47.065682601928714 c7.1,7.9 12.2,17.4 14.9,27.8 l1.2,-0.4 c6.3,-18.9 -5.5,-27.8 -8.3,-29.6 L103.6140151977539,47.065682601928714 z" id="svg_3"/>
			</g>
		</g>
		<g id="a4714539-0013-4a45-8bc3-9ab75dd35f66">
			<g id="f29548c2-f969-4e0f-89a4-f99ef7f3776a">
				<path class="st0" d="M59.8140151977539,118.76568260192872 c-1,0 -1.7000000000000002,-0.8 -1.7000000000000002,-1.7000000000000002 c0,0 0,-0.1 0,-0.1 c1,-12.8 -0.2,-31.3 -11.7,-46.7 C39.514015197753906,60.965682601928705 32.014015197753906,57.065682601928714 32.014015197753906,56.965682601928705 c-0.9,-0.4 -1.2,-1.5 -0.8,-2.3 c0.2,-0.4 0.6000000000000001,-0.7000000000000001 1.1,-0.9 l58.9,-16.9 c0.5,-0.1 1.1,0 1.5,0.30000000000000004 c33.7,24.6 27.8,62.9 27.7,63.3 c-0.1,0.7000000000000001 -0.6000000000000001,1.2 -1.2,1.4 l-58.9,16.9 C60.1140151977539,118.76568260192872 59.91401519775391,118.76568260192872 59.8140151977539,118.76568260192872 zM36.91401519775391,56.065682601928714 c7.9,5.6 26.7,23 24.8,58.7 l55.4,-15.9 c0.6000000000000001,-6.1 2.3,-37.3 -25.8,-58.4 L36.91401519775391,56.065682601928714 z" id="svg_4"/>
			</g>
		</g>
		<g id="f8570d3a-38fe-4f1c-b36c-b2f266951216">
			<g id="a0fdb0e0-cc22-442f-b696-c87080c14976">
				<path class="st0" d="M27.514015197753906,104.16568260192871 c-2.9,-0.1 -5.7,-1.4 -7.8,-3.5 c-3.2,-3.2 -5.5,-7.2 -6.7,-11.6 c-2.9,-10.2 -0.1,-19.6 6.3,-21.4 c3.2,-0.9 6.8,0.2 10,3.2 c6.4,6.6 9.1,16 7.2,25 c-1.1,4.3 -3.5,7.1 -6.8,8 l0,0 C29.014015197753906,104.06568260192871 28.314015197753903,104.16568260192871 27.514015197753906,104.16568260192871 zM21.614015197753908,70.76568260192872 c-0.4,0 -0.9,0.1 -1.3,0.2 c-4.5,1.3 -6.3,9.1 -4,17.2 c1,3.8 3,7.2 5.7,10 c2.3,2.1 4.7,3 6.7,2.4 l0,0 c2,-0.6000000000000001 3.6,-2.6 4.4,-5.6 c1.6,-7.8 -0.7000000000000001,-15.8 -6.2,-21.6 C25.614015197753908,71.86568260192871 23.71401519775391,70.9656826019287 21.614015197753908,70.76568260192872 L21.614015197753908,70.76568260192872 z" id="svg_5"/>
			</g>
		</g>
		<g id="b2796b35-564a-4661-8c52-153dfdbd3711">
			<g id="e70cc1f8-7f7a-459f-9f72-450cdbf16b16">
				<path class="st0" d="M25.71401519775391,94.16568260192871 c-1.4,-0.1 -2.8,-0.7000000000000001 -3.8,-1.7000000000000002 c-1.4,-1.4 -2.5,-3.2 -3,-5.1 c-1.3,-4.6 0.1,-8.9 3.2,-9.8 s6.6,2 8,6.6 s-0.1,8.9 -3.2,9.8 l0,0 C26.514015197753906,94.16568260192871 26.114015197753908,94.16568260192871 25.71401519775391,94.16568260192871 zM26.414015197753905,92.36568260192871 L26.414015197753905,92.36568260192871 zM23.414015197753905,80.86568260192871 c-0.1,0 -0.2,0 -0.2,0 c-0.9,0.30000000000000004 -1.7000000000000002,2.6 -0.9,5.6 c0.4,1.3 1,2.6 2,3.5 c0.4,0.5 1,0.8 1.7000000000000002,0.7000000000000001 l0,0 c0.9,-0.30000000000000004 1.7000000000000002,-2.6 0.9,-5.6 C26.014015197753906,82.36568260192871 24.414015197753905,80.86568260192871 23.414015197753905,80.86568260192871 z" id="svg_6"/>
			</g>
		</g>
	</g>
</g></g></svg>