<svg xmlns="http://www.w3.org/2000/svg" xmlns:xlink="http://www.w3.org/1999/xlink" version="1.1" style="enable-background:new 0 0 200 150;" xml:space="preserve" width="151" height="73"><rect id="backgroundrect" width="100%" height="100%" x="0" y="0" fill="none" stroke="none"/>

<g class="currentLayer" style=""><title>Lettershop</title><g id="svg_1" class="">
	<path class="st0" d="M15.47804069519043,50.7437759399414 c0.2,0 0.30000000000000004,0 0.5,-0.1 l33.8,-9.7 c0.9,-0.30000000000000004 1.4,-1.2 1.2,-2.1 c-0.30000000000000004,-0.9 -1.2,-1.4 -2.1,-1.2 l-33.8,9.7 c-0.9,0.30000000000000004 -1.4,1.2 -1.2,2.1 C14.078040695190431,50.2437759399414 14.678040695190433,50.7437759399414 15.47804069519043,50.7437759399414 L15.47804069519043,50.7437759399414 z" id="svg_2"/>
	<path class="st0" d="M42.078040695190424,55.04377593994141 c-0.30000000000000004,-0.9 -1.2,-1.4 -2.1,-1.2 l-38.7,11.1 c-0.9,0.30000000000000004 -1.5,1.2 -1.2,2.1 c0.30000000000000004,0.9 1.2,1.5 2.1,1.2 c0,0 0,0 0,0 l38.7,-11.1 C41.77804069519043,56.9437759399414 42.378040695190435,55.9437759399414 42.078040695190424,55.04377593994141 C42.078040695190424,55.04377593994141 42.078040695190424,55.04377593994141 42.078040695190424,55.04377593994141 z" id="svg_3"/>
	<path class="st0" d="M51.67804069519043,64.1437759399414 l-19.9,5.7 c-0.9,0.30000000000000004 -1.4,1.2 -1.2,2.1 c0.2,0.7000000000000001 0.9,1.2 1.7000000000000002,1.2 c0.2,0 0.30000000000000004,0 0.5,-0.1 l19.9,-5.7 c0.9,-0.30000000000000004 1.5,-1.2 1.2,-2.1 C53.578040695190424,64.4437759399414 52.578040695190424,63.9437759399414 51.67804069519043,64.1437759399414 C51.67804069519043,64.1437759399414 51.67804069519043,64.1437759399414 51.67804069519043,64.1437759399414 z" id="svg_4"/>
	<path class="st0" d="M150.87804069519044,49.2437759399414 l-13.8,-48 c-0.30000000000000004,-0.9 -1.2,-1.4 -2.1,-1.2 c0,0 0,0 0,0 l-74,21.2 c-0.9,0.30000000000000004 -1.4,1.2 -1.2,2.1 l13.8,48 c0.2,0.7000000000000001 0.9,1.2 1.7000000000000002,1.2 c0.2,0 0.30000000000000004,0 0.5,-0.1 l3.9,-1.1 h0 l66.1,-19 h0 l3.9,-1.1 C150.67804069519042,51.143775939941406 151.17804069519042,50.143775939941406 150.87804069519044,49.2437759399414 C150.87804069519044,49.2437759399414 150.87804069519044,49.2437759399414 150.87804069519044,49.2437759399414 zM128.17804069519042,5.643775939941406 l-20.3,39.5 L69.77804069519043,22.443775939941403 L128.17804069519042,5.643775939941406 zM77.97804069519043,68.34377593994141 l-1.5,0.4 L63.67804069519043,24.143775939941406 l1.5,-0.4 l27.4,16.3 L77.97804069519043,68.34377593994141 zM82.57804069519042,67.04377593994141 l13,-25.3 l12.2,7.2 c0.8,0.5 1.9,0.2 2.4,-0.6000000000000001 c0,0 0,-0.1 0.1,-0.1 l6.5,-12.6 l24.4,14.5 L82.57804069519042,67.04377593994141 zM145.57804069519042,48.9437759399414 L118.17804069519042,32.643775939941406 l14.6,-28.4 l1.5,-0.4 l12.8,44.7 L145.57804069519042,48.9437759399414 z" id="svg_5"/>
</g></g></svg>