<svg xmlns="http://www.w3.org/2000/svg" version="1.1" xml:space="preserve" width="131" height="64">
    <rect id="backgroundrect" width="100%" height="100%" x="0" y="0" fill="none" stroke="none" />
    <g class="currentLayer">
        <title>Lettershop</title>
        <path class="st12" d="M13.482934783935548,44.09534405517579 c0.137,0 0.276,-0.019000000000000003 0.41400000000000003,-0.05900000000000001 l29.4,-8.431000000000001 a1.5,1.5 0 1 0 -0.8270000000000001,-2.883 l-29.4,8.431000000000001 a1.5,1.5 0 0 0 0.41300000000000003,2.942 zM36.61693478393555,47.84634405517578 a1.5,1.5 0 0 0 -1.855,-1.028 l-33.651,9.649000000000001 a1.5,1.5 0 1 0 0.8280000000000001,2.883 l33.651,-9.649000000000001 a1.5,1.5 0 0 0 1.027,-1.855 zM44.93293478393555,55.788344055175784 l-17.267,4.9510000000000005 a1.5,1.5 0 1 0 0.8270000000000001,2.883 l17.267,-4.9510000000000005 a1.5,1.5 0 1 0 -0.8270000000000001,-2.883 zM131.24293478393554,42.809344055175785 l-11.964,-41.724 a1.5030000000000001,1.5030000000000001 0 0 0 -1.855,-1.028 l-64.309,18.44 a1.5,1.5 0 0 0 -1.028,1.856 l11.964,41.724 a1.501,1.501 0 0 0 1.855,1.028 l3.396,-0.974 l0.005000000000000001,-0.0010000000000000002 l57.507,-16.49 c0.003000000000000001,-0.0010000000000000002 0.005000000000000001,-0.003000000000000001 0.008000000000000002,-0.003000000000000001 l3.392,-0.973 a1.498,1.498 0 0 0 1.029,-1.855 zm-19.723,-37.935 l-17.664,34.337 L60.678934783935546,19.452344055175786 l50.841,-14.578 zm-43.661,54.55 l-1.3370000000000002,0.38300000000000006 l-11.137,-38.84 l1.334,-0.38300000000000006 l23.821,14.187 l-12.681000000000001,24.653 zm3.957,-1.134 l11.307,-21.979 l10.569,6.295 a1.495,1.495 0 0 0 1.181,0.15300000000000002 c0.3980000000000001,-0.11400000000000002 0.7310000000000001,-0.38800000000000007 0.921,-0.7560000000000001 l5.627,-10.938 l21.234,12.647 l-50.839,14.578 zm54.795,-15.713000000000001 L102.79493478393556,28.392344055175784 l12.683,-24.656 l1.332,-0.38200000000000006 l11.137,38.84 l-1.336,0.38300000000000006 z" id="svg_1" />
    </g>
</svg>