<svg xmlns="http://www.w3.org/2000/svg" version="1.1" xml:space="preserve" viewBox="0 0 110 105" width="110" height="105"><rect id="backgroundrect" width="100%" height="100%" x="0" y="0" fill="none" stroke="none"/><g class="currentLayer" style=""><title>Print</title><g id="icn_print" transform="rotate(-16 58.30368041992194,-39.20469284057616) " class=""><g id="Gruppe_79"><g id="Gruppe_71" transform=""><path class="st12" d="M-10.205319141387939,40.18630910270082 c-2.166,-0.6210000000000006 -4.124,-2.277 -5.646,-4.813 c-1.8250000000000002,-3.041 -2.831,-7.053 -2.83,-11.297 s1.005,-8.255 2.83,-11.296 c1.968,-3.281 4.668,-5.088 7.601,-5.088 c0.1,0 0.19900000000000023,0.002000000000000002 0.29700000000000026,0.00600000000000001 a1.53,1.53 0 0 1 0.136,-0.00600000000000001 h82.381 c0.3750000000000003,0 0.7360000000000005,0.139 1.013,0.3940000000000004 c0.14,0.129 13.893,13.07 0.17900000000000013,31.003 a1.502,1.502 0 0 1 -1.191,0.5890000000000005 H-4.9943191413879395 a7.22,7.22 0 0 1 -3.254,0.784 a7.128,7.128 0 0 1 -1.957,-0.276 zm3.078,-29.334 a4.074,4.074 0 0 0 -1.123,-0.16000000000000017 c-1.838,0 -3.624,1.2890000000000001 -5.029,3.632 c-1.549,2.581 -2.402,6.045 -2.402,9.752 s0.8530000000000005,7.172 2.402,9.753 c1.4060000000000001,2.343 3.192,3.6310000000000002 5.029,3.632 c0.6290000000000006,0 1.252,-0.15100000000000013 1.855,-0.4430000000000003 c0.14100000000000001,-0.1160000000000001 0.30300000000000027,-0.20600000000000004 0.48000000000000026,-0.265 c0.98,-0.6080000000000005 1.8980000000000001,-1.597 2.694,-2.923 c1.549,-2.582 2.402,-6.046 2.402,-9.753 c0,-6.57 -2.79,-12.216 -6.308,-13.225 zm4.968,-0.16000000000000017 c2.645,2.944 4.34,7.796 4.34,13.384 c0,4.244 -1.005,8.256 -2.83,11.297 c-0.279,0.464 -0.5720000000000005,0.8990000000000007 -0.8790000000000006,1.304 h75.341 c10.216,-13.927 2.12,-23.888 0.131,-25.985 H-2.1593191413879396 z" id="Pfad_79" transform=""/></g><g id="Gruppe_72" transform=""><path class="st12" d="M-9.2633193397522,31.3893088585602 c-2.343,-0.6720000000000009 -4.06,-3.6430000000000002 -4.06,-7.311 c0,-4.18 2.228,-7.454 5.072,-7.454 c2.843,0.003000000000000006 5.073,3.274 5.073,7.454 s-2.228,7.454 -5.072,7.454 a3.722,3.722 0 0 1 -1.013,-0.14300000000000004 zm1.012,-1.358 l0.009000000000000018,0.003000000000000006 l-0.009000000000000018,-0.003000000000000006 zm0.19600000000000023,-10.379 a0.7160000000000006,0.7160000000000006 0 0 0 -0.19600000000000023,-0.029000000000000033 c-0.8450000000000006,0 -2.072,1.735 -2.072,4.454 c0,2.7190000000000003 1.227,4.454 2.073,4.454 c0.8440000000000006,-0.0010000000000000013 2.071,-1.7360000000000002 2.072,-4.455 c-0.0010000000000000013,-2.5140000000000002 -1.051,-4.187 -1.8770000000000002,-4.424 z" id="Pfad_80" transform=""/></g><g id="Gruppe_73" transform=""><path class="st12" d="M-8.665318836212158,77.86130928580629 a1.5,1.5 0 0 1 0.4140000000000003,-2.942 h0.006000000000000012 c1.836,-0.0020000000000000026 3.619,-1.292 5.023,-3.6310000000000002 c1.549,-2.582 2.402,-6.045 2.402,-9.753 c0.0010000000000000013,-7.251 -3.402,-13.375 -7.425,-13.385 h-0.006000000000000012 a1.5,1.5 0 1 1 0,-3 h20.323 a1.501,1.501 0 0 1 1.316,0.781 a53.378,53.378 0 0 1 6.334,30.627 a1.501,1.501 0 0 1 -1.494,1.362 H-8.251318836212157 a1.534,1.534 0 0 1 -0.4140000000000003,-0.05900000000000006 zm6.505,-29.711 c2.645,2.944 4.34,7.796 4.34,13.385 c0,4.244 -1.005,8.256 -2.83,11.297 c-0.4690000000000003,0.78 -0.978,1.478 -1.5230000000000001,2.087 h19.015 a50.352,50.352 0 0 0 -5.6690000000000005,-26.769 H-2.1603188362121557 zm73.088,29.711 a1.5030000000000001,1.5030000000000001 0 0 1 -1.085,-1.524 a54.631,54.631 0 0 0 -6.5,-28.974 a1.499,1.499 0 0 1 1.319,-2.213 h10.129 a1.5,1.5 0 0 1 1.049,0.4280000000000003 c0.134,0.132 13.293,13.368 0.171,31.714 a1.5,1.5 0 0 1 -1.22,0.6280000000000007 h-3.451 a1.542,1.542 0 0 1 -0.4120000000000003,-0.05900000000000006 zm-3.809,-29.711 a57.642,57.642 0 0 1 5.785,26.769 h1.108 c9.806000000000001,-14.311 2.081,-24.559 0.13,-26.769 h-7.023 z" id="Pfad_81" transform=""/></g><g id="Gruppe_74" transform=""><path class="st12" d="M13.271680446624757,97.59130916373596 a1.501,1.501 0 0 1 -0.991,-1.969 c3.9130000000000003,-10.436 7.338,-26.172 1.4300000000000002,-41.878 c-3.5380000000000003,-9.404 -8.829,-14.419 -8.882,-14.469 a1.501,1.501 0 0 1 1.022,-2.597 h53.27 c0.465,0.0010000000000000013 0.9,0.21300000000000016 1.184,0.5790000000000006 c22.245,28.598 8.147,59.228 8.002,59.534 a1.5,1.5 0 0 1 -1.355,0.8580000000000007 H13.685680446624758 c-0.14200000000000004,0 -0.281,-0.02000000000000002 -0.4140000000000003,-0.05800000000000006 zm-4.104,-57.912 c5.235,6.604 16.831,25.609 6.6530000000000005,54.97 h50.138 c2.001,-4.973 10.884,-30.651 -7.577,-54.972 l-49.214,0.0020000000000000026 z" id="Pfad_82" transform=""/></g><g id="Gruppe_75" transform=""><path class="st12" d="M-10.205319141387939,77.64430928580629 c-2.166,-0.6210000000000007 -4.124,-2.277 -5.646,-4.813 c-1.8250000000000002,-3.041 -2.831,-7.053 -2.83,-11.297 c0,-9.187 4.582,-16.384 10.431000000000001,-16.384 c2.936,0.0010000000000000013 5.633,1.808 7.602,5.087 c1.8250000000000002,3.041 2.83,7.053 2.829,11.297 c0,4.244 -1.005,8.256 -2.83,11.297 c-1.969,3.281 -4.668,5.088 -7.601,5.088 a7.085,7.085 0 0 1 -1.955,-0.275 zm3.072,-29.335 a4.025,4.025 0 0 0 -1.117,-0.15900000000000017 c-4.028,0 -7.431,6.129 -7.431,13.384 c0,3.708 0.8530000000000006,7.172 2.402,9.753 c1.4060000000000001,2.343 3.193,3.632 5.029,3.632 c1.838,0 3.624,-1.2890000000000001 5.029,-3.6310000000000002 c1.549,-2.582 2.402,-6.046 2.402,-9.754 c0,-3.708 -0.8530000000000006,-7.172 -2.402,-9.753 c-1.118,-1.863 -2.477,-3.06 -3.912,-3.472 z" id="Pfad_83" transform=""/></g><g id="Gruppe_76" transform=""><path class="st12" d="M-9.264319339752198,68.86930785148012 c-1.088,-0.31200000000000033 -2.074,-1.123 -2.798,-2.3280000000000003 c-0.812,-1.355 -1.26,-3.124 -1.26,-4.983 c0,-4.179 2.228,-7.454 5.072,-7.454 c2.843,0.0010000000000000013 5.072,3.275 5.072,7.454 c0,4.18 -2.228,7.454 -5.072,7.454 a3.6900000000000004,3.6900000000000004 0 0 1 -1.014,-0.14300000000000004 zm1.013,-1.357 l0.009000000000000018,0.003000000000000006 l-0.009000000000000018,-0.003000000000000006 zm0.19600000000000023,-10.379 a0.7160000000000006,0.7160000000000006 0 0 0 -0.19600000000000023,-0.029000000000000033 c-0.8440000000000006,0 -2.072,1.735 -2.072,4.454 c0,1.303 0.3030000000000003,2.557 0.8330000000000006,3.438 c0.3820000000000004,0.6370000000000008 0.8460000000000006,1.018 1.239,1.016 c0.8450000000000006,0 2.072,-1.735 2.072,-4.454 c0,-2.515 -1.05,-4.188 -1.8760000000000003,-4.425 z" id="Pfad_84" transform=""/></g></g></g><g transform="rotate(-16 58.30368041992194,-39.20469284057616) " class="" id="svg_1"><g id="svg_2"><g id="Gruppe_71"><path class="st12" d="M-10.205319141387939,40.18630910270082 c-2.166,-0.6210000000000006 -4.124,-2.277 -5.646,-4.813 c-1.8250000000000002,-3.041 -2.831,-7.053 -2.83,-11.297 s1.005,-8.255 2.83,-11.296 c1.968,-3.281 4.668,-5.088 7.601,-5.088 c0.1,0 0.19900000000000023,0.002000000000000002 0.29700000000000026,0.00600000000000001 a1.53,1.53 0 0 1 0.136,-0.00600000000000001 h82.381 c0.3750000000000003,0 0.7360000000000005,0.139 1.013,0.3940000000000004 c0.14,0.129 13.893,13.07 0.17900000000000013,31.003 a1.502,1.502 0 0 1 -1.191,0.5890000000000005 H-4.9943191413879395 a7.22,7.22 0 0 1 -3.254,0.784 a7.128,7.128 0 0 1 -1.957,-0.276 zm3.078,-29.334 a4.074,4.074 0 0 0 -1.123,-0.16000000000000017 c-1.838,0 -3.624,1.2890000000000001 -5.029,3.632 c-1.549,2.581 -2.402,6.045 -2.402,9.752 s0.8530000000000005,7.172 2.402,9.753 c1.4060000000000001,2.343 3.192,3.6310000000000002 5.029,3.632 c0.6290000000000006,0 1.252,-0.15100000000000013 1.855,-0.4430000000000003 c0.14100000000000001,-0.1160000000000001 0.30300000000000027,-0.20600000000000004 0.48000000000000026,-0.265 c0.98,-0.6080000000000005 1.8980000000000001,-1.597 2.694,-2.923 c1.549,-2.582 2.402,-6.046 2.402,-9.753 c0,-6.57 -2.79,-12.216 -6.308,-13.225 zm4.968,-0.16000000000000017 c2.645,2.944 4.34,7.796 4.34,13.384 c0,4.244 -1.005,8.256 -2.83,11.297 c-0.279,0.464 -0.5720000000000005,0.8990000000000007 -0.8790000000000006,1.304 h75.341 c10.216,-13.927 2.12,-23.888 0.131,-25.985 H-2.1593191413879396 z" id="Pfad_79"/></g><g id="Gruppe_72"><path class="st12" d="M-9.2633193397522,31.3893088585602 c-2.343,-0.6720000000000009 -4.06,-3.6430000000000002 -4.06,-7.311 c0,-4.18 2.228,-7.454 5.072,-7.454 c2.843,0.003000000000000006 5.073,3.274 5.073,7.454 s-2.228,7.454 -5.072,7.454 a3.722,3.722 0 0 1 -1.013,-0.14300000000000004 zm1.012,-1.358 l0.009000000000000018,0.003000000000000006 l-0.009000000000000018,-0.003000000000000006 zm0.19600000000000023,-10.379 a0.7160000000000006,0.7160000000000006 0 0 0 -0.19600000000000023,-0.029000000000000033 c-0.8450000000000006,0 -2.072,1.735 -2.072,4.454 c0,2.7190000000000003 1.227,4.454 2.073,4.454 c0.8440000000000006,-0.0010000000000000013 2.071,-1.7360000000000002 2.072,-4.455 c-0.0010000000000000013,-2.5140000000000002 -1.051,-4.187 -1.8770000000000002,-4.424 z" id="Pfad_80"/></g><g id="Gruppe_73"><path class="st12" d="M-8.665318836212158,77.86130928580629 a1.5,1.5 0 0 1 0.4140000000000003,-2.942 h0.006000000000000012 c1.836,-0.0020000000000000026 3.619,-1.292 5.023,-3.6310000000000002 c1.549,-2.582 2.402,-6.045 2.402,-9.753 c0.0010000000000000013,-7.251 -3.402,-13.375 -7.425,-13.385 h-0.006000000000000012 a1.5,1.5 0 1 1 0,-3 h20.323 a1.501,1.501 0 0 1 1.316,0.781 a53.378,53.378 0 0 1 6.334,30.627 a1.501,1.501 0 0 1 -1.494,1.362 H-8.251318836212157 a1.534,1.534 0 0 1 -0.4140000000000003,-0.05900000000000006 zm6.505,-29.711 c2.645,2.944 4.34,7.796 4.34,13.385 c0,4.244 -1.005,8.256 -2.83,11.297 c-0.4690000000000003,0.78 -0.978,1.478 -1.5230000000000001,2.087 h19.015 a50.352,50.352 0 0 0 -5.6690000000000005,-26.769 H-2.1603188362121557 zm73.088,29.711 a1.5030000000000001,1.5030000000000001 0 0 1 -1.085,-1.524 a54.631,54.631 0 0 0 -6.5,-28.974 a1.499,1.499 0 0 1 1.319,-2.213 h10.129 a1.5,1.5 0 0 1 1.049,0.4280000000000003 c0.134,0.132 13.293,13.368 0.171,31.714 a1.5,1.5 0 0 1 -1.22,0.6280000000000007 h-3.451 a1.542,1.542 0 0 1 -0.4120000000000003,-0.05900000000000006 zm-3.809,-29.711 a57.642,57.642 0 0 1 5.785,26.769 h1.108 c9.806000000000001,-14.311 2.081,-24.559 0.13,-26.769 h-7.023 z" id="Pfad_81"/></g><g id="Gruppe_74"><path class="st12" d="M13.271680446624757,97.59130916373596 a1.501,1.501 0 0 1 -0.991,-1.969 c3.9130000000000003,-10.436 7.338,-26.172 1.4300000000000002,-41.878 c-3.5380000000000003,-9.404 -8.829,-14.419 -8.882,-14.469 a1.501,1.501 0 0 1 1.022,-2.597 h53.27 c0.465,0.0010000000000000013 0.9,0.21300000000000016 1.184,0.5790000000000006 c22.245,28.598 8.147,59.228 8.002,59.534 a1.5,1.5 0 0 1 -1.355,0.8580000000000007 H13.685680446624758 c-0.14200000000000004,0 -0.281,-0.02000000000000002 -0.4140000000000003,-0.05800000000000006 zm-4.104,-57.912 c5.235,6.604 16.831,25.609 6.6530000000000005,54.97 h50.138 c2.001,-4.973 10.884,-30.651 -7.577,-54.972 l-49.214,0.0020000000000000026 z" id="Pfad_82"/></g><g id="Gruppe_75"><path class="st12" d="M-10.205319141387939,77.64430928580629 c-2.166,-0.6210000000000007 -4.124,-2.277 -5.646,-4.813 c-1.8250000000000002,-3.041 -2.831,-7.053 -2.83,-11.297 c0,-9.187 4.582,-16.384 10.431000000000001,-16.384 c2.936,0.0010000000000000013 5.633,1.808 7.602,5.087 c1.8250000000000002,3.041 2.83,7.053 2.829,11.297 c0,4.244 -1.005,8.256 -2.83,11.297 c-1.969,3.281 -4.668,5.088 -7.601,5.088 a7.085,7.085 0 0 1 -1.955,-0.275 zm3.072,-29.335 a4.025,4.025 0 0 0 -1.117,-0.15900000000000017 c-4.028,0 -7.431,6.129 -7.431,13.384 c0,3.708 0.8530000000000006,7.172 2.402,9.753 c1.4060000000000001,2.343 3.193,3.632 5.029,3.632 c1.838,0 3.624,-1.2890000000000001 5.029,-3.6310000000000002 c1.549,-2.582 2.402,-6.046 2.402,-9.754 c0,-3.708 -0.8530000000000006,-7.172 -2.402,-9.753 c-1.118,-1.863 -2.477,-3.06 -3.912,-3.472 z" id="Pfad_83"/></g><g id="Gruppe_76"><path class="st12" d="M-9.264319339752198,68.86930785148012 c-1.088,-0.31200000000000033 -2.074,-1.123 -2.798,-2.3280000000000003 c-0.812,-1.355 -1.26,-3.124 -1.26,-4.983 c0,-4.179 2.228,-7.454 5.072,-7.454 c2.843,0.0010000000000000013 5.072,3.275 5.072,7.454 c0,4.18 -2.228,7.454 -5.072,7.454 a3.6900000000000004,3.6900000000000004 0 0 1 -1.014,-0.14300000000000004 zm1.013,-1.357 l0.009000000000000018,0.003000000000000006 l-0.009000000000000018,-0.003000000000000006 zm0.19600000000000023,-10.379 a0.7160000000000006,0.7160000000000006 0 0 0 -0.19600000000000023,-0.029000000000000033 c-0.8440000000000006,0 -2.072,1.735 -2.072,4.454 c0,1.303 0.3030000000000003,2.557 0.8330000000000006,3.438 c0.3820000000000004,0.6370000000000008 0.8460000000000006,1.018 1.239,1.016 c0.8450000000000006,0 2.072,-1.735 2.072,-4.454 c0,-2.515 -1.05,-4.188 -1.8760000000000003,-4.425 z" id="Pfad_84"/></g></g></g></g></svg>