<svg id="Ebene_1" data-name="Ebene 1" xmlns="http://www.w3.org/2000/svg" viewBox="0 0 200 200"><defs><clipPath id="clip-path"><path fill="none" d="M5.314-37.09h189.372v274.18H5.314z"/></clipPath><style>.cls-3{clip-path:url(#clip-path)}.cls-4{fill:#00b0eb}</style></defs><g id="Passermarken" opacity=".297"><g class="cls-3"><g id="Gruppe_57" data-name="Gruppe 57"><g id="Gruppe_55" data-name="Gruppe 55"><path class="cls-4" d="M80.515 81.21a40.605 40.605 0 110-81.21 40.6 40.6 0 110 81.21zm0-79.752a39.147 39.147 0 100 78.293 39.147 39.147 0 000-78.293z" id="Pfad_58" data-name="Pfad 58"/></g><g id="Gruppe_56" data-name="Gruppe 56"><path class="cls-4" d="M79.785.44h1.458v80.329h-1.458z" id="Pfad_59" data-name="Pfad 59"/></g></g></g><g id="Gruppe_58" data-name="Gruppe 58"><path class="cls-4" d="M40.35 39.876h80.33v1.458H40.35z" id="Pfad_61" data-name="Pfad 61"/></g><g class="cls-3"><g id="Gruppe_61" data-name="Gruppe 61"><g id="Gruppe_59" data-name="Gruppe 59"><path class="cls-4" d="M80.518 65.26a24.654 24.654 0 1124.654-24.66 24.683 24.683 0 01-24.658 24.66zm0-47.852a23.2 23.2 0 100 46.394 23.2 23.2 0 000-46.394z" id="Pfad_62" data-name="Pfad 62"/></g><g id="Gruppe_60" data-name="Gruppe 60"><path class="cls-4" d="M128.48 144.913a40.6 40.6 0 010-81.209 40.6 40.6 0 110 81.209zm0-79.751a39.147 39.147 0 100 78.293 39.147 39.147 0 000-78.293z" id="Pfad_63" data-name="Pfad 63"/></g></g></g><g id="Gruppe_62" data-name="Gruppe 62"><path class="cls-4" d="M127.751 64.143h1.458v80.329h-1.458z" id="Pfad_65" data-name="Pfad 65"/></g><g class="cls-3"><g id="Gruppe_69" data-name="Gruppe 69"><g id="Gruppe_63" data-name="Gruppe 63"><path class="cls-4" d="M88.315 103.58h80.33v1.458h-80.33z" id="Pfad_66" data-name="Pfad 66"/></g><g id="Gruppe_64" data-name="Gruppe 64"><path class="cls-4" d="M128.484 128.963a24.654 24.654 0 1117.434-7.218 24.682 24.682 0 01-17.438 7.218zm0-47.851a23.2 23.2 0 100 46.393 23.2 23.2 0 000-46.393z" id="Pfad_67" data-name="Pfad 67"/></g><g id="Gruppe_65" data-name="Gruppe 65"><path class="cls-4" d="M71.521 200a40.605 40.605 0 010-81.21 40.605 40.605 0 110 81.21zm0-79.752a39.147 39.147 0 000 78.293v.729-.729a39.147 39.147 0 100-78.293z" id="Pfad_68" data-name="Pfad 68"/></g><g id="Gruppe_66" data-name="Gruppe 66"><path class="cls-4" d="M70.792 119.23h1.458v80.329h-1.458z" id="Pfad_69" data-name="Pfad 69"/></g><g id="Gruppe_67" data-name="Gruppe 67"><path class="cls-4" d="M31.356 158.665h80.33v1.458h-80.33z" id="Pfad_70" data-name="Pfad 70"/></g><g id="Gruppe_68" data-name="Gruppe 68"><path class="cls-4" d="M71.526 184.047a24.655 24.655 0 110-49.309 24.655 24.655 0 110 49.309zm0-47.851a23.2 23.2 0 100 46.393h.006a23.2 23.2 0 000-46.393z" id="Pfad_71" data-name="Pfad 71"/></g></g></g></g></svg>