<svg version="1.1" id="Ebene_1" xmlns="http://www.w3.org/2000/svg" x="0" y="0" viewBox="0 0 200 200" xml:space="preserve"><style>.st12{fill:#c0c9cf}</style><path class="st12" d="M46.649 112.513c.137 0 .276-.019.414-.059l29.4-8.431a1.5 1.5 0 10-.827-2.883l-29.4 8.431a1.5 1.5 0 00.413 2.942zM69.783 116.264a1.5 1.5 0 00-1.855-1.028l-33.651 9.649a1.5 1.5 0 10.828 2.883l33.651-9.649a1.5 1.5 0 001.027-1.855zM78.099 124.206l-17.267 4.951a1.5 1.5 0 10.827 2.883l17.267-4.951a1.5 1.5 0 10-.827-2.883zM164.409 111.227l-11.964-41.724a1.503 1.503 0 00-1.855-1.028l-64.309 18.44a1.5 1.5 0 00-1.028 1.856l11.964 41.724a1.501 1.501 0 001.855 1.028l3.396-.974.005-.001 57.507-16.49c.003-.001.005-.003.008-.003l3.392-.973a1.498 1.498 0 001.029-1.855zm-19.723-37.935l-17.664 34.337L93.845 87.87l50.841-14.578zm-43.661 54.55l-1.337.383-11.137-38.84 1.334-.383 23.821 14.187-12.681 24.653zm3.957-1.134l11.307-21.979 10.569 6.295a1.495 1.495 0 001.181.153c.398-.114.731-.388.921-.756l5.627-10.938 21.234 12.647-50.839 14.578zm54.795-15.713L135.961 96.81l12.683-24.656 1.332-.382 11.137 38.84-1.336.383z"/></svg>