<svg xmlns="http://www.w3.org/2000/svg" width="131" height="64"><rect width="100%" height="100%" fill="none"/><g class="currentLayer"><path d="M13.483 44.095c.137 0 .276-.019.414-.059l29.4-8.43a1.5 1.5 0 10-.827-2.884l-29.4 8.431a1.5 1.5 0 00.413 2.942zm23.134 3.751a1.5 1.5 0 00-1.855-1.028L1.11 56.468a1.5 1.5 0 10.828 2.882l33.65-9.649a1.5 1.5 0 001.028-1.855zm8.316 7.942L27.666 60.74a1.5 1.5 0 10.827 2.883l17.267-4.95a1.5 1.5 0 10-.827-2.884zm86.31-12.979L119.279 1.085a1.503 1.503 0 00-1.855-1.028l-64.31 18.44a1.5 1.5 0 00-1.027 1.856L64.05 62.077a1.501 1.501 0 001.855 1.028l3.396-.974h.005l57.507-16.49c.003-.002.005-.004.008-.004l3.392-.973a1.498 1.498 0 001.029-1.855zM111.52 4.874L93.856 39.211 60.679 19.452l50.84-14.578zm-43.661 54.55l-1.337.383-11.137-38.84 1.334-.383 23.82 14.187-12.68 24.653zm3.957-1.134l11.307-21.979 10.569 6.295a1.495 1.495 0 001.18.153c.399-.114.732-.388.922-.756l5.627-10.938 21.234 12.647-50.84 14.578zm54.795-15.713l-23.816-14.185 12.683-24.656 1.332-.382 11.137 38.84-1.336.383z" fill="#c0c9cf"/></g></svg>