<svg xmlns="http://www.w3.org/2000/svg" width="166" height="91"><rect id="backgroundrect" width="100%" height="100%" x="0" y="0" fill="none" stroke="none"/><style/><g class="currentLayer"><path d="M165.738 76.055l-16.54-10.685 14.567 4.972a1.494 1.494 0 001.357-.199 1.5 1.5 0 00.627-1.22V33.671c0-.642-.408-1.212-1.016-1.419l-17.485-5.968a1.499 1.499 0 00-.708-.063 1.512 1.512 0 00-.72.071l-16.162 5.806-7.619-2.6V16.173c0-.385-.148-.755-.414-1.035L108.3 1.147A1.498 1.498 0 00106.846 0h-59.39c-.072 0-.14.011-.209.021-.02.003-.04.002-.06.006a1.469 1.469 0 00-.454.167c-.123.068-.24.148-.339.247l-1.95 1.95c-.019.019-.026.043-.043.063a1.494 1.494 0 00-.54 1.143v23.357L8.84 23.801a1.526 1.526 0 00-.985.259L.65 29.019a1.5 1.5 0 00.715 2.73l10.943.985 5.591 7.568L6.3 49.144c-.018.014-.03.032-.049.047-.017.014-.036.024-.053.039-.028.026-.049.057-.075.084-.035.037-.07.073-.1.113a1.41 1.41 0 00-.1.155c-.024.04-.049.079-.069.121-.029.063-.05.128-.07.195-.012.038-.028.074-.036.112-.023.104-.036.21-.037.318v31.748c0 .173.037.337.093.494.017.048.04.09.06.135.051.109.114.209.19.303.03.038.057.077.092.112.106.108.225.202.362.275.012.006.02.016.032.022l.005.003c.151.075.312.113.474.134.02.003.035.014.054.016l50.78 4.668c.046.004.092.006.138.006.014 0 .027-.007.041-.008.16-.004.315-.033.465-.087.06-.022.111-.06.17-.089.078-.04.161-.069.234-.124l5.302-4.042 1.211 4.828a1.502 1.502 0 002.364.828L70 87.856l1.134 2.697a1.502 1.502 0 002.292.612l8.384-6.389 11.134 3.402a1.5 1.5 0 001.938-1.435V71.475h11.04l13.53 14.207a1.499 1.499 0 002.586-1.035V74.369l12.655 8.175c.242.157.524.24.813.24h28.51a1.5 1.5 0 00.812-2.76l-1.87-1.208h1.963c.665 0 1.251-.438 1.438-1.076a1.492 1.492 0 00-.62-1.685zM5.778 29.134l3.335-2.296 2.267.204 3.73.448 40.021 3.603-3.192 2.197-46.162-4.156zm10.528 3.96l35.903 3.232a1.5 1.5 0 00.986-.259l5.992-4.124L67.66 43.41l-46.847-4.216-4.506-6.1zm53.042 20.823l-9.843 7.505c-.005.003-.007.008-.012.012v-5.687l9.854-7.513v5.683zm-50.78-10.35v6.309l-7.385-.679 7.385-5.63zM56.493 85.1l-47.78-4.393V51.981l47.78 4.393V85.1zm1.053-31.641l-35.978-3.307v-7.877l45.3 4.078-9.322 7.106zm1.947 30.255V65.11l3.917 15.618-3.917 2.986zm8.278 2.07l-2.007-8.003 3.036 7.218-1.029.785zm5.38 1.82l-9.287-22.08 7.964-6.072 9.29 22.081-7.968 6.071zm18.733-2.888l-7.493-2.289a1.497 1.497 0 00-.058-.986l-10.49-24.938a1.502 1.502 0 00-.997-.868c-.073-.02-.148-.025-.222-.033l-.276-1.101v-9.297c0-.016-.006-.031-.007-.047-.002-.068-.017-.133-.028-.2-.012-.073-.022-.146-.045-.215-.019-.058-.048-.112-.075-.168a1.443 1.443 0 00-.114-.212c-.01-.016-.015-.034-.026-.049l-11.2-15.162a1.49 1.49 0 00-1.169-.773l-12.822-1.154V5.623l45.021 13.756v65.337zm13.182-16.242H94.883V18.269a1.5 1.5 0 00-1.062-1.435L51.447 3.887 51.268 3h53.798v65.474zm13.974 12.422l-10.692-11.227V5.546l10.692 11.228v64.122zM148.265 29.8l14.485 4.944v32.082l-14.485-4.944V29.8zm-1.712 34.668l1.506.514h-2.938l1.432-.514zm-15.336-29.742l13.611-4.89V61.9l-8.579 3.082h-5.033V34.726zm-9.177 30.023V32.667l6.085 2.077v30.238h-5.403l-.682-.233zm13.911 15.034l-12.126-7.833h1.522l10.255 6.625c.242.157.524.24.813.24h21.017l1.5.968h-22.98zm.907-3.968l-12.126-7.833h22.98l12.126 7.833h-22.98z" fill="#c0c9cf" id="svg_1"/></g></svg>