<svg version="1.1" id="Ebene_1" xmlns="http://www.w3.org/2000/svg" x="0" y="0" viewBox="0 0 200 200" xml:space="preserve"><style>.st12{fill:#c0c9cf}</style><g id="icn_print" transform="rotate(-16 103.21 7.775)"><g id="Gruppe_79"><g id="Gruppe_71"><path class="st12" d="M34.701 87.166c-2.166-.621-4.124-2.277-5.646-4.813-1.825-3.041-2.831-7.053-2.83-11.297s1.005-8.255 2.83-11.296c1.968-3.281 4.668-5.088 7.601-5.088.1 0 .199.002.297.006a1.53 1.53 0 01.136-.006h82.381c.375 0 .736.139 1.013.394.14.129 13.893 13.07.179 31.003a1.502 1.502 0 01-1.191.589H39.912a7.22 7.22 0 01-3.254.784 7.128 7.128 0 01-1.957-.276zm3.078-29.334a4.074 4.074 0 00-1.123-.16c-1.838 0-3.624 1.289-5.029 3.632-1.549 2.581-2.402 6.045-2.402 9.752s.853 7.172 2.402 9.753c1.406 2.343 3.192 3.631 5.029 3.632.629 0 1.252-.151 1.855-.443.141-.116.303-.206.48-.265.98-.608 1.898-1.597 2.694-2.923 1.549-2.582 2.402-6.046 2.402-9.753 0-6.57-2.79-12.216-6.308-13.225zm4.968-.16c2.645 2.944 4.34 7.796 4.34 13.384 0 4.244-1.005 8.256-2.83 11.297-.279.464-.572.899-.879 1.304h75.341c10.216-13.927 2.12-23.888.131-25.985H42.747z" id="Pfad_79"/></g><g id="Gruppe_72" transform="translate(5.358 8.931)"><path class="st12" d="M30.285 69.438c-2.343-.672-4.06-3.643-4.06-7.311 0-4.18 2.228-7.454 5.072-7.454 2.843.003 5.073 3.274 5.073 7.454s-2.228 7.454-5.072 7.454a3.722 3.722 0 01-1.013-.143zm1.012-1.358l.009.003-.009-.003zm.196-10.379a.716.716 0 00-.196-.029c-.845 0-2.072 1.735-2.072 4.454 0 2.719 1.227 4.454 2.073 4.454.844-.001 2.071-1.736 2.072-4.455-.001-2.514-1.051-4.187-1.877-4.424z" id="Pfad_80"/></g><g id="Gruppe_73" transform="translate(8.93 37.458)"><path class="st12" d="M27.311 87.383a1.5 1.5 0 01.414-2.942h.006c1.836-.002 3.619-1.292 5.023-3.631 1.549-2.582 2.402-6.045 2.402-9.753.001-7.251-3.402-13.375-7.425-13.385h-.006a1.5 1.5 0 110-3h20.323a1.501 1.501 0 011.316.781 53.378 53.378 0 016.334 30.627 1.501 1.501 0 01-1.494 1.362H27.725a1.534 1.534 0 01-.414-.059zm6.505-29.711c2.645 2.944 4.34 7.796 4.34 13.385 0 4.244-1.005 8.256-2.83 11.297-.469.78-.978 1.478-1.523 2.087h19.015a50.352 50.352 0 00-5.669-26.769H33.816zm73.088 29.711a1.503 1.503 0 01-1.085-1.524 54.631 54.631 0 00-6.5-28.974 1.499 1.499 0 011.319-2.213h10.129a1.5 1.5 0 011.049.428c.134.132 13.293 13.368.171 31.714a1.5 1.5 0 01-1.22.628h-3.451a1.542 1.542 0 01-.412-.059zm-3.809-29.711a57.642 57.642 0 015.785 26.769h1.108c9.806-14.311 2.081-24.559.13-26.769h-7.023z" id="Pfad_81"/></g><g id="Gruppe_74" transform="translate(23.032 28.986)"><path class="st12" d="M35.146 115.585a1.501 1.501 0 01-.991-1.969c3.913-10.436 7.338-26.172 1.43-41.878-3.538-9.404-8.829-14.419-8.882-14.469a1.501 1.501 0 011.022-2.597h53.27c.465.001.9.213 1.184.579 22.245 28.598 8.147 59.228 8.002 59.534a1.5 1.5 0 01-1.355.858H35.56c-.142 0-.281-.02-.414-.058zm-4.104-57.912c5.235 6.604 16.831 25.609 6.653 54.97h50.138c2.001-4.973 10.884-30.651-7.577-54.972l-49.214.002z" id="Pfad_82"/></g><g id="Gruppe_75" transform="translate(0 37.458)"><path class="st12" d="M34.701 87.166c-2.166-.621-4.124-2.277-5.646-4.813-1.825-3.041-2.831-7.053-2.83-11.297 0-9.187 4.582-16.384 10.431-16.384 2.936.001 5.633 1.808 7.602 5.087 1.825 3.041 2.83 7.053 2.829 11.297 0 4.244-1.005 8.256-2.83 11.297-1.969 3.281-4.668 5.088-7.601 5.088a7.085 7.085 0 01-1.955-.275zm3.072-29.335a4.025 4.025 0 00-1.117-.159c-4.028 0-7.431 6.129-7.431 13.384 0 3.708.853 7.172 2.402 9.753 1.406 2.343 3.193 3.632 5.029 3.632 1.838 0 3.624-1.289 5.029-3.631 1.549-2.582 2.402-6.046 2.402-9.754 0-3.708-.853-7.172-2.402-9.753-1.118-1.863-2.477-3.06-3.912-3.472z" id="Pfad_83"/></g><g id="Gruppe_76" transform="translate(5.358 46.412)"><path class="st12" d="M30.284 69.437c-1.088-.312-2.074-1.123-2.798-2.328-.812-1.355-1.26-3.124-1.26-4.983 0-4.179 2.228-7.454 5.072-7.454 2.843.001 5.072 3.275 5.072 7.454 0 4.18-2.228 7.454-5.072 7.454a3.69 3.69 0 01-1.014-.143zm1.013-1.357l.009.003-.009-.003zm.196-10.379a.716.716 0 00-.196-.029c-.844 0-2.072 1.735-2.072 4.454 0 1.303.303 2.557.833 3.438.382.637.846 1.018 1.239 1.016.845 0 2.072-1.735 2.072-4.454 0-2.515-1.05-4.188-1.876-4.425z" id="Pfad_84"/></g></g></g></svg>