<svg version="1.1" id="Ebene_1" xmlns="http://www.w3.org/2000/svg" x="0" y="0" viewBox="0 0 200 200" xml:space="preserve"><style></style><path d="M182.076 130.46l-16.54-10.685 14.567 4.972a1.494 1.494 0 001.357-.199 1.5 1.5 0 00.627-1.22V88.076c0-.642-.408-1.212-1.016-1.419l-17.485-5.968a1.499 1.499 0 00-.708-.063 1.512 1.512 0 00-.72.071l-16.162 5.806-7.619-2.6V70.578c0-.385-.148-.755-.414-1.035l-13.325-13.991a1.498 1.498 0 00-1.454-1.147h-59.39c-.072 0-.14.011-.209.021-.02.003-.041.002-.061.006a1.469 1.469 0 00-.453.167c-.123.068-.24.148-.339.247l-1.95 1.95c-.019.019-.026.043-.043.063a1.494 1.494 0 00-.541 1.143v23.357l-35.019-3.153a1.526 1.526 0 00-.985.259l-7.206 4.959a1.5 1.5 0 00.715 2.73l10.943.985 5.591 7.568-11.599 8.842c-.018.014-.031.032-.049.047-.017.014-.036.024-.053.039-.028.026-.049.057-.075.084-.035.037-.07.073-.1.113a1.41 1.41 0 00-.1.155c-.024.04-.049.079-.069.121-.029.063-.05.128-.07.195-.012.038-.028.074-.036.112-.023.104-.036.21-.037.318l-.001.009v31.739c0 .173.038.337.094.494.017.048.039.09.06.135.051.109.114.209.189.303.031.038.058.077.093.112.106.108.225.202.362.275.012.006.02.016.032.022l.005.003c.151.075.312.113.474.134.019.003.035.014.054.016l50.78 4.668c.046.004.092.006.138.006.014 0 .027-.007.041-.008.159-.004.315-.033.465-.087.06-.022.111-.06.169-.089.079-.04.162-.069.235-.124l5.302-4.042 1.211 4.828a1.502 1.502 0 002.364.828l2.222-1.694 1.134 2.697a1.502 1.502 0 002.292.612l8.384-6.389 11.134 3.402a1.5 1.5 0 001.938-1.435V125.88h11.04l13.53 14.207a1.499 1.499 0 002.586-1.035v-10.278l12.655 8.175c.242.157.524.24.813.24h28.509a1.5 1.5 0 00.813-2.76l-1.871-1.208h1.964c.665 0 1.251-.438 1.438-1.076a1.492 1.492 0 00-.621-1.685zM22.115 83.539l3.336-2.296 2.267.204 3.729.448 40.022 3.603-3.192 2.197-46.162-4.156zm10.529 3.96l35.903 3.232a1.5 1.5 0 00.986-.259l5.992-4.124 8.472 11.467-46.847-4.216-4.506-6.1zm53.042 20.823l-9.843 7.505c-.005.003-.007.008-.012.012v-5.687l9.854-7.513v5.683zm-50.78-10.35v6.309l-7.385-.679 7.385-5.63zm37.925 41.533l-47.78-4.393v-28.726l47.78 4.393v28.726zm1.053-31.641l-35.978-3.307V96.68l45.3 4.078-9.322 7.106zm1.947 30.255v-18.604l3.917 15.618-3.917 2.986zm8.278 2.07l-2.007-8.003 3.036 7.218-1.029.785zm5.379 1.82l-9.286-22.08 7.964-6.072 9.289 22.081-7.967 6.071zm18.734-2.888l-7.493-2.289a1.497 1.497 0 00-.058-.986L90.18 110.908a1.502 1.502 0 00-.996-.868c-.073-.02-.148-.025-.222-.033l-.276-1.101v-9.297c0-.016-.006-.031-.007-.047-.002-.068-.017-.133-.028-.2-.012-.073-.022-.146-.045-.215-.019-.058-.048-.112-.075-.168a1.443 1.443 0 00-.114-.212c-.011-.016-.015-.034-.026-.049L77.19 83.556a1.49 1.49 0 00-1.168-.773L63.2 81.629V60.028l45.021 13.756v65.337zm13.182-16.242h-10.183V72.674a1.5 1.5 0 00-1.062-1.435L67.785 58.292l-.179-.887h53.798v65.474zm13.974 12.422l-10.692-11.227V59.951l10.692 11.228v64.122zm29.225-51.096l14.485 4.944v32.082l-14.485-4.944V84.205zm-1.712 34.668l1.506.514h-2.938l1.432-.514zm-15.336-29.742l13.611-4.89v32.064l-8.579 3.082h-5.033V89.131zm-9.177 30.023V87.072l6.085 2.077v30.238h-5.403l-.682-.233zm13.911 15.034l-12.126-7.833h1.522l10.255 6.625c.242.157.524.24.813.24h21.017l1.499.968h-22.98zm.907-3.968l-12.126-7.833h22.98l12.126 7.833h-22.98z" fill="#c0c9cf"/></svg>